<mxfile host="app.diagrams.net" agent="Mozilla/5.0 (Windows NT 10.0; Win64; x64) AppleWebKit/537.36 (KHTML, like Gecko) Chrome/134.0.0.0 Safari/537.36 Edg/134.0.0.0" version="26.1.1">
  <diagram name="第 1 页" id="QIedMJg28J1HPFnpuEa-">
    <mxGraphModel dx="1002" dy="1786" grid="1" gridSize="10" guides="1" tooltips="1" connect="1" arrows="1" fold="1" page="1" pageScale="1" pageWidth="827" pageHeight="1169" math="0" shadow="0">
      <root>
        <mxCell id="0" />
        <mxCell id="1" parent="0" />
        <mxCell id="6ERFdGAas9kPiyV4Svvd-29" value="User" style="swimlane;fontStyle=1;align=center;verticalAlign=top;childLayout=stackLayout;horizontal=1;startSize=26;horizontalStack=0;resizeParent=1;resizeParentMax=0;resizeLast=0;collapsible=1;marginBottom=0;whiteSpace=wrap;html=1;" parent="1" vertex="1">
          <mxGeometry x="160" y="280" width="320" height="160" as="geometry">
            <mxRectangle x="260" y="280" width="70" height="30" as="alternateBounds" />
          </mxGeometry>
        </mxCell>
        <mxCell id="6ERFdGAas9kPiyV4Svvd-30" value="- prompt&amp;nbsp; &amp;nbsp; &amp;nbsp; : String&lt;div&gt;&lt;span style=&quot;background-color: transparent; color: light-dark(rgb(0, 0, 0), rgb(255, 255, 255));&quot;&gt;- toggleAI&amp;nbsp; &amp;nbsp; : bool&lt;/span&gt;&lt;/div&gt;" style="text;strokeColor=none;fillColor=none;align=left;verticalAlign=top;spacingLeft=4;spacingRight=4;overflow=hidden;rotatable=0;points=[[0,0.5],[1,0.5]];portConstraint=eastwest;whiteSpace=wrap;html=1;" parent="6ERFdGAas9kPiyV4Svvd-29" vertex="1">
          <mxGeometry y="26" width="320" height="44" as="geometry" />
        </mxCell>
        <mxCell id="6ERFdGAas9kPiyV4Svvd-31" value="" style="line;strokeWidth=1;fillColor=none;align=left;verticalAlign=middle;spacingTop=-1;spacingLeft=3;spacingRight=3;rotatable=0;labelPosition=right;points=[];portConstraint=eastwest;strokeColor=inherit;" parent="6ERFdGAas9kPiyV4Svvd-29" vertex="1">
          <mxGeometry y="70" width="320" height="8" as="geometry" />
        </mxCell>
        <mxCell id="6ERFdGAas9kPiyV4Svvd-32" value="&lt;div&gt;+ goSearch (bool&amp;nbsp;&lt;span style=&quot;background-color: transparent; color: light-dark(rgb(0, 0, 0), rgb(255, 255, 255));&quot;&gt;toggleAI&lt;/span&gt;&lt;span style=&quot;background-color: transparent; color: light-dark(rgb(0, 0, 0), rgb(255, 255, 255));&quot;&gt;)&amp;nbsp; &amp;nbsp; &amp;nbsp; &amp;nbsp; &amp;nbsp; : List&lt;/span&gt;&lt;/div&gt;+ displayHistory ()&amp;nbsp; &amp;nbsp; &amp;nbsp; &amp;nbsp; &amp;nbsp; &amp;nbsp; &amp;nbsp; &amp;nbsp; &amp;nbsp; &amp;nbsp; &amp;nbsp; &amp;nbsp; : List&lt;div&gt;+ addConfig (string)&amp;nbsp; &amp;nbsp; &amp;nbsp; &amp;nbsp; &amp;nbsp; &amp;nbsp; &amp;nbsp; &amp;nbsp; &amp;nbsp; &amp;nbsp; &amp;nbsp;: void&lt;br&gt;+ submitConfig (string)&amp;nbsp; &amp;nbsp; &amp;nbsp; &amp;nbsp; &amp;nbsp; &amp;nbsp; &amp;nbsp; &amp;nbsp; : void&lt;/div&gt;&lt;div&gt;&lt;br&gt;&lt;/div&gt;" style="text;strokeColor=none;fillColor=none;align=left;verticalAlign=top;spacingLeft=4;spacingRight=4;overflow=hidden;rotatable=0;points=[[0,0.5],[1,0.5]];portConstraint=eastwest;whiteSpace=wrap;html=1;" parent="6ERFdGAas9kPiyV4Svvd-29" vertex="1">
          <mxGeometry y="78" width="320" height="82" as="geometry" />
        </mxCell>
        <mxCell id="6ERFdGAas9kPiyV4Svvd-33" value="Platform" style="swimlane;fontStyle=1;align=center;verticalAlign=top;childLayout=stackLayout;horizontal=1;startSize=26;horizontalStack=0;resizeParent=1;resizeParentMax=0;resizeLast=0;collapsible=1;marginBottom=0;whiteSpace=wrap;html=1;" parent="1" vertex="1">
          <mxGeometry x="180" y="-40" width="270" height="202" as="geometry">
            <mxRectangle x="260" y="280" width="70" height="30" as="alternateBounds" />
          </mxGeometry>
        </mxCell>
        <mxCell id="6ERFdGAas9kPiyV4Svvd-34" value="&lt;div&gt;- llmApi&amp;nbsp; &amp;nbsp; &amp;nbsp; &amp;nbsp; : String&lt;/div&gt;- history&amp;nbsp; &amp;nbsp; &amp;nbsp; &amp;nbsp;: List&amp;nbsp;&lt;br&gt;&lt;div&gt;- Sources&amp;nbsp; &amp;nbsp; : List&lt;/div&gt;&lt;div&gt;&lt;br&gt;&lt;/div&gt;" style="text;strokeColor=none;fillColor=none;align=left;verticalAlign=top;spacingLeft=4;spacingRight=4;overflow=hidden;rotatable=0;points=[[0,0.5],[1,0.5]];portConstraint=eastwest;whiteSpace=wrap;html=1;" parent="6ERFdGAas9kPiyV4Svvd-33" vertex="1">
          <mxGeometry y="26" width="270" height="74" as="geometry" />
        </mxCell>
        <mxCell id="6ERFdGAas9kPiyV4Svvd-35" value="" style="line;strokeWidth=1;fillColor=none;align=left;verticalAlign=middle;spacingTop=-1;spacingLeft=3;spacingRight=3;rotatable=0;labelPosition=right;points=[];portConstraint=eastwest;strokeColor=inherit;" parent="6ERFdGAas9kPiyV4Svvd-33" vertex="1">
          <mxGeometry y="100" width="270" height="8" as="geometry" />
        </mxCell>
        <mxCell id="6ERFdGAas9kPiyV4Svvd-36" value="&lt;div&gt;+ directSearch(string)&amp;nbsp; &amp;nbsp; &amp;nbsp; &amp;nbsp; &amp;nbsp; &amp;nbsp; : List&lt;br&gt;+ nlpSearch(string)&amp;nbsp; &amp;nbsp; &amp;nbsp; &amp;nbsp; &amp;nbsp; &amp;nbsp; &amp;nbsp; &amp;nbsp; : List&lt;/div&gt;&lt;div&gt;+ testNet()&amp;nbsp; &amp;nbsp; &amp;nbsp; &amp;nbsp; &amp;nbsp; &amp;nbsp; &amp;nbsp; &amp;nbsp; &amp;nbsp; &amp;nbsp; &amp;nbsp; &amp;nbsp; &amp;nbsp; &amp;nbsp; &amp;nbsp; : int[]&lt;br&gt;&lt;/div&gt;&lt;div&gt;+ writeLog()&amp;nbsp; &amp;nbsp; &amp;nbsp; &amp;nbsp; &amp;nbsp; &amp;nbsp; &amp;nbsp; &amp;nbsp; &amp;nbsp; &amp;nbsp; &amp;nbsp; &amp;nbsp; &amp;nbsp; &amp;nbsp;: void&lt;br&gt;+ doHistory(string)&amp;nbsp; &amp;nbsp; &amp;nbsp; &amp;nbsp; &amp;nbsp; &amp;nbsp; &amp;nbsp; &amp;nbsp; &amp;nbsp;: void&amp;nbsp; &amp;nbsp; &amp;nbsp;&lt;/div&gt;" style="text;strokeColor=none;fillColor=none;align=left;verticalAlign=top;spacingLeft=4;spacingRight=4;overflow=hidden;rotatable=0;points=[[0,0.5],[1,0.5]];portConstraint=eastwest;whiteSpace=wrap;html=1;" parent="6ERFdGAas9kPiyV4Svvd-33" vertex="1">
          <mxGeometry y="108" width="270" height="94" as="geometry" />
        </mxCell>
        <mxCell id="6ERFdGAas9kPiyV4Svvd-40" value="" style="endArrow=classic;html=1;rounded=0;entryX=0.516;entryY=1.017;entryDx=0;entryDy=0;entryPerimeter=0;exitX=0.5;exitY=0;exitDx=0;exitDy=0;" parent="1" source="6ERFdGAas9kPiyV4Svvd-29" target="6ERFdGAas9kPiyV4Svvd-36" edge="1">
          <mxGeometry width="50" height="50" relative="1" as="geometry">
            <mxPoint x="320" y="270" as="sourcePoint" />
            <mxPoint x="500" y="320" as="targetPoint" />
          </mxGeometry>
        </mxCell>
        <mxCell id="6ERFdGAas9kPiyV4Svvd-41" value="uses" style="edgeLabel;html=1;align=center;verticalAlign=middle;resizable=0;points=[];" parent="6ERFdGAas9kPiyV4Svvd-40" vertex="1" connectable="0">
          <mxGeometry x="-0.0085" relative="1" as="geometry">
            <mxPoint x="20" as="offset" />
          </mxGeometry>
        </mxCell>
      </root>
    </mxGraphModel>
  </diagram>
</mxfile>
